<svg version="1.1" xmlns="http://www.w3.org/2000/svg" xmlns:xlink="http://www.w3.org/1999/xlink" width="877.47688" height="616.81562" viewBox="0,0,877.47688,616.81562"><defs><linearGradient x1="308.31832" y1="124.62462" x2="308.31832" y2="486.48649" gradientUnits="userSpaceOnUse" id="color-1"><stop offset="0" stop-color="#ff4242"/><stop offset="1" stop-color="#ff0000"/></linearGradient><linearGradient x1="-107.5976" y1="126.87688" x2="9.51952" y2="126.87688" gradientUnits="userSpaceOnUse" id="color-2"><stop offset="0" stop-color="#ffffff"/><stop offset="1" stop-color="#ffffff" stop-opacity="0"/></linearGradient><linearGradient x1="-25.01502" y1="117.86787" x2="96.60661" y2="117.86787" gradientUnits="userSpaceOnUse" id="color-3"><stop offset="0" stop-color="#ffffff"/><stop offset="1" stop-color="#ffffff" stop-opacity="0"/></linearGradient><linearGradient x1="-106.0961" y1="82.58258" x2="21.53153" y2="82.58258" gradientUnits="userSpaceOnUse" id="color-4"><stop offset="0" stop-color="#ffffff"/><stop offset="1" stop-color="#ffffff" stop-opacity="0"/></linearGradient><linearGradient x1="323.33333" y1="39.03904" x2="440.45045" y2="39.03904" gradientUnits="userSpaceOnUse" id="color-5"><stop offset="0" stop-color="#ffffff"/><stop offset="1" stop-color="#ffffff" stop-opacity="0"/></linearGradient><linearGradient x1="410.42042" y1="70.57057" x2="530.54054" y2="70.57057" gradientUnits="userSpaceOnUse" id="color-6"><stop offset="0" stop-color="#ffffff"/><stop offset="1" stop-color="#ffffff" stop-opacity="0"/></linearGradient><linearGradient x1="318.82883" y1="84.83483" x2="432.94294" y2="84.83483" gradientUnits="userSpaceOnUse" id="color-7"><stop offset="0" stop-color="#ffffff"/><stop offset="1" stop-color="#ffffff" stop-opacity="0"/></linearGradient></defs><g transform="translate(141.23063,17.11652)"><g data-paper-data="{&quot;isPaintingLayer&quot;:true}" fill-rule="nonzero" stroke-linecap="butt" stroke-linejoin="miter" stroke-miterlimit="10" stroke-dasharray="" stroke-dashoffset="0" style="mix-blend-mode: normal"><path d="M-140.63063,599.0991v-615.61562h830.33033v615.61562z" fill="#ff0000" stroke="#001026" stroke-width="1.2"/><path d="M-119.60961,486.48649v-361.86186h855.85586v361.86186z" fill="url(#color-1)" stroke="none" stroke-width="0"/><path d="M9.51952,126.87688c0,15.34124 -26.21756,27.77778 -58.55856,27.77778c-32.341,0 -58.55856,-12.43653 -58.55856,-27.77778c0,-15.34124 26.21756,-27.77778 58.55856,-27.77778c32.341,0 58.55856,12.43653 58.55856,27.77778z" fill="url(#color-2)" stroke="none" stroke-width="0"/><path d="M96.60661,117.86787c0,21.97529 -27.22593,39.78979 -60.81081,39.78979c-33.58488,0 -60.81081,-17.8145 -60.81081,-39.78979c0,-21.97529 27.22593,-39.78979 60.81081,-39.78979c33.58488,0 60.81081,17.8145 60.81081,39.78979z" fill="url(#color-3)" stroke="none" stroke-width="0"/><path d="M21.53153,82.58258c0,25.70695 -28.57042,46.54655 -63.81381,46.54655c-35.2434,0 -63.81381,-20.8396 -63.81381,-46.54655c0,-25.70695 28.57042,-46.54655 63.81381,-46.54655c35.2434,0 63.81381,20.8396 63.81381,46.54655z" fill="url(#color-4)" stroke="none" stroke-width="0"/><path d="M440.45045,39.03904c0,21.56067 -26.21756,39.03904 -58.55856,39.03904c-32.341,0 -58.55856,-17.47837 -58.55856,-39.03904c0,-21.56067 26.21756,-39.03904 58.55856,-39.03904c32.341,0 58.55856,17.47837 58.55856,39.03904z" fill="url(#color-5)" stroke="none" stroke-width="0"/><path d="M530.54054,70.57057c0,25.70695 -26.8898,46.54655 -60.06006,46.54655c-33.17026,0 -60.06006,-20.8396 -60.06006,-46.54655c0,-25.70695 26.8898,-46.54655 60.06006,-46.54655c33.17026,0 60.06006,20.8396 60.06006,46.54655z" fill="url(#color-6)" stroke="none" stroke-width="0"/><path d="M432.94294,84.83483c0,15.34124 -25.54531,27.77778 -57.05706,27.77778c-31.51174,0 -57.05706,-12.43653 -57.05706,-27.77778c0,-15.34124 25.54531,-27.77778 57.05706,-27.77778c31.51174,0 57.05706,12.43653 57.05706,27.77778z" fill="url(#color-7)" stroke="none" stroke-width="0"/></g></g></svg>