<svg version="1.1" xmlns="http://www.w3.org/2000/svg" xmlns:xlink="http://www.w3.org/1999/xlink" width="884.38438" height="535.27628" viewBox="0,0,884.38438,535.27628"><defs><linearGradient x1="239.24925" y1="-79.75976" x2="239.24925" y2="100.42042" gradientUnits="userSpaceOnUse" id="color-1"><stop offset="0" stop-color="#ffffff"/><stop offset="1" stop-color="#ff0000"/></linearGradient><radialGradient cx="-58.11914" cy="200.49184" r="15.33767" gradientUnits="userSpaceOnUse" id="color-2"><stop offset="0" stop-color="#c30000"/><stop offset="1" stop-color="#400000"/></radialGradient><radialGradient cx="29.45804" cy="192.88675" r="13.27587" gradientUnits="userSpaceOnUse" id="color-3"><stop offset="0" stop-color="#c30000"/><stop offset="1" stop-color="#400000"/></radialGradient><radialGradient cx="-15.87126" cy="108.88224" r="18.3631" gradientUnits="userSpaceOnUse" id="color-4"><stop offset="0" stop-color="#c30000"/><stop offset="1" stop-color="#ca0000"/></radialGradient></defs><g transform="translate(155.64565,79.75976)"><g data-paper-data="{&quot;isPaintingLayer&quot;:true}" stroke-miterlimit="10" stroke-dasharray="" stroke-dashoffset="0" style="mix-blend-mode: normal"><path d="M-133.12313,253.57357v-301.8018h861.86186v301.8018z" fill="#ff0000" fill-rule="nonzero" stroke="none" stroke-width="NaN" stroke-linecap="butt" stroke-linejoin="miter"/><path d="M-153.03754,454.51652v-190h871v190z" fill="#c07b46" fill-rule="nonzero" stroke="#000000" stroke-width="2" stroke-linecap="butt" stroke-linejoin="miter"/><path d="M-117.03754,283.51652v-31h797v31z" fill="#84542f" fill-rule="nonzero" stroke="#000000" stroke-width="6" stroke-linecap="butt" stroke-linejoin="miter"/><path d="M-155.64565,100.42042v-180.18018h789.78979v180.18018z" fill="url(#color-1)" fill-rule="nonzero" stroke="none" stroke-width="0" stroke-linecap="butt" stroke-linejoin="miter"/><path d="M107.54259,77.27167c-9.10254,13.86954 -27.83895,20.16158 -27.83895,20.16158" fill="none" fill-rule="evenodd" stroke="#001026" stroke-width="1.2" stroke-linecap="round" stroke-linejoin="round"/><path d="M113.52551,107.63635c-16.04885,6.58377 -27.83453,4.88394 -27.83453,4.88394" fill="none" fill-rule="evenodd" stroke="#001026" stroke-width="1.2" stroke-linecap="round" stroke-linejoin="round"/><g fill-rule="evenodd"><path d="M5.45281,196.20842c1.81189,0.28042 5.69344,0.97393 3.13517,9.11233c-2.55827,8.1384 -15.58991,13.82098 -17.15159,14.3214c-5.98897,2.13433 -13.40696,4.51132 -22.48152,4.40557c-26.31775,-0.17703 -34.70731,-25.68703 -28.4077,-32.22598c6.10439,-6.4764 14.4897,8.27224 28.29133,14.39717c6.0612,2.79337 12.22271,2.54104 17.22052,2.01583c7.01246,-0.95552 17.32414,-12.43941 19.3938,-12.02632z" fill="#000000" stroke="#001026" stroke-width="1.2" stroke-linecap="round" stroke-linejoin="round"/><path d="M-48.02608,195.90935c4.81228,4.26984 13.24078,9.74871 13.24078,9.74871c0,0 -7.78575,0.55754 -10.82178,5.18971c-2.5054,3.60112 -0.3484,7.64554 0.47988,8.88691c-3.35091,-1.72455 -7.60022,-4.2375 -11.74165,-10.44434c-4.14143,-6.20684 -4.81653,-15.03119 -1.28763,-17.4535c3.654,-2.03189 5.56833,0.58351 10.1304,4.07251z" fill="url(#color-2)" stroke="none" stroke-width="1" stroke-linecap="butt" stroke-linejoin="miter"/></g><path d="M21.71876,213.38267c-2.76316,3.46846 -12.11389,15.93596 -25.9717,25.75785l-0.71829,0.44542c-0.71829,0.44542 -0.79595,1.54658 -0.15532,2.20231c4.81983,3.62166 13.87386,11.05263 4.20068,17.81158c-9.28276,6.63385 -37.42845,-14.69813 -31.54405,-24.5481c2.83326,-3.92144 6.5897,-3.61835 8.59681,-3.40048c1.10116,0.07766 2.07721,-0.2351 2.99071,-0.74307c2.09231,-1.53147 5.88652,-4.4693 8.64213,-7.28958c7.01789,-6.98437 8.40702,-9.36679 11.37295,-13.54599c2.96592,-4.1792 9.63116,-14.27939 18.85561,-10.34709c7.93564,3.269 6.29842,10.25125 3.73048,13.65717z" fill="#000000" fill-rule="evenodd" stroke="#001026" stroke-width="1.2" stroke-linecap="round" stroke-linejoin="round"/><path d="M39.74632,162.83312c1.22626,0.46808 17.63785,10.70753 20.41612,5.9427c3.37145,-5.60067 7.24874,-15.66852 16.34054,-11.47846c9.0918,4.19006 -0.67958,19.37539 -5.40239,24.11756c-11.53039,10.36763 -26.15275,2.35315 -29.49611,-0.01959c-3.34336,-2.37274 -9.13169,-6.32982 -10.75805,-11.40528c-1.55625,-5.52844 4.64303,-9.02169 8.89989,-7.15692z" fill="#000000" fill-rule="evenodd" stroke="#001026" stroke-width="1.2" stroke-linecap="round" stroke-linejoin="round"/><g fill-rule="evenodd"><path d="M54.51621,208.25456c5.28791,2.3954 16.70712,7.13119 16.70712,7.13119c0,0 26.35126,-13.82523 30.85503,0.22991c2.68975,8.39404 -10.73987,14.84991 -30.23824,19.16059c-1.23381,0.1801 -2.53018,0.165 -3.75644,-0.30308c-5.48312,-2.33285 -21.2843,-9.32383 -31.53225,-14.43494c-15.14544,-7.63161 -27.08773,-11.98454 -27.08773,-11.98454c-21.78471,-10.88551 -10.50453,-22.03398 -8.23637,-33.09298c2.31561,-9.56743 4.96334,-8.69382 17.42659,-10.10444c6.94991,-1.15073 11.04177,-1.81614 15.27385,-3.3875c6.37939,-2.25944 8.21064,7.48597 8.01755,12.9292c0,0 -0.41851,8.09851 -1.76775,12.62069c-1.68466,5.49067 -3.0889,9.16945 -4.86845,11.67697z" fill="#000000" stroke="#001026" stroke-width="1.2" stroke-linecap="round" stroke-linejoin="round"/><path d="M33.48968,199.06339c0,0 -3.67878,-1.40424 -7.74043,-3.33156c-5.03015,-2.26274 -9.87264,-3.93985 -7.90755,-11.24241c2.01253,-5.81099 3.32943,-13.12111 13.92791,-10.27486c10.08295,2.58093 7.93777,8.64968 7.93777,8.64968c-1.47977,10.16061 -6.21769,16.19915 -6.21769,16.19915z" fill="url(#color-3)" stroke="none" stroke-width="1" stroke-linecap="butt" stroke-linejoin="miter"/></g><path d="M-1.11636,192.50155c6.04609,4.08974 14.87257,8.79532 8.29254,17.14617c-9.45318,10.13252 -25.27371,-6.32344 -29.41515,-12.53028c-3.69601,-5.48855 0.12841,-11.01911 3.35965,-15.71384c6.45492,-8.74127 11.73103,-16.45904 20.47772,-16.03297c10.88646,0.38617 6.36098,10.44646 2.60666,15.52406c-2.24008,3.0856 -4.41761,6.36641 -6.12705,8.42095c-0.27287,1.16371 -0.09277,2.39752 0.80563,3.18592z" fill="#000000" fill-rule="evenodd" stroke="#000000" stroke-width="1.2" stroke-linecap="round" stroke-linejoin="round"/><path d="M14.20683,41.4872c0.46053,-0.57808 1.49913,-0.69563 1.94455,0.02266l11.76856,19.26114c0,0 15.43342,5.17154 21.20664,10.42498c9.6871,8.73489 12.69717,17.4568 12.69717,17.4568c0,0 15.17353,-0.3418 21.08153,10.03456c5.908,10.37636 4.0744,34.21137 -30.3107,53.19398c-34.3851,18.98261 -67.05202,18.47228 -88.04291,0.65952c-20.99089,-17.81276 -7.63445,-51.36721 -8.30529,-49.43022l-15.29628,-33.62904c-0.44542,-0.71829 0.34298,-1.61668 1.24892,-1.47647l28.56207,7.85279c0,0 7.72107,-6.13343 16.77085,-9.46381c5.34078,-2.14188 10.15093,-3.25272 14.89098,-3.91058z" fill="#000000" fill-rule="evenodd" stroke="#001026" stroke-width="1.2" stroke-linecap="butt" stroke-linejoin="miter"/><path d="M61.98687,91.17491c0,0 14.59545,-0.80232 20.50345,9.57404c5.908,10.37636 2.9808,33.48553 -31.07643,52.14782c-44.11327,24.89817 -75.56999,3.9814 -69.12144,-20.90189c6.38599,-25.0785 34.52743,-14.50788 50.54978,-20.93353c13.74238,-5.47982 11.36327,-18.27848 29.14463,-19.88643z" fill="#ffffff" fill-rule="evenodd" stroke="none" stroke-width="1" stroke-linecap="butt" stroke-linejoin="miter"/><g fill-rule="evenodd"><path d="M46.15124,76.01531c8.47595,6.97045 11.86133,16.86362 7.52138,22.12887c-4.33995,5.26525 -14.63322,4.04324 -23.30438,-2.86466c-8.47595,-6.97045 -11.86133,-16.86362 -7.52138,-22.12887c4.27739,-5.46046 14.82843,-4.10579 23.30438,2.86466z" fill="#c50000" stroke="#001026" stroke-width="1.2" stroke-linecap="round" stroke-linejoin="round"/><path d="M48.93587,87.39251c0.68808,2.14731 -0.31064,4.40462 -2.26274,5.03015c-1.9521,0.62552 -4.07676,-0.63095 -4.76483,-2.77826c-0.68808,-2.14731 0.31064,-4.40462 2.26274,-5.03015c1.9521,-0.62552 4.07676,0.63095 4.76483,2.77826" fill="#001026" stroke="none" stroke-width="1" stroke-linecap="butt" stroke-linejoin="miter"/></g><path d="M-0.47356,93.914c8.60861,6.71268 11.59601,17.37914 7.51383,22.77705c-5.25345,5.77322 -14.71843,5.79258 -23.32704,-0.92011c-8.80382,-6.65013 -12.75972,-17.65201 -8.08435,-23.88576c4.61282,-6.42896 15.28895,-4.68387 23.89756,2.02882z" fill="url(#color-4)" fill-rule="evenodd" stroke="#001026" stroke-width="1.2" stroke-linecap="round" stroke-linejoin="round"/><path d="M1.94732,108.69168c0.68808,2.14731 -0.31064,4.40462 -2.26274,5.03015c-1.9521,0.62552 -4.07676,-0.63095 -4.76483,-2.77826c-0.68808,-2.14731 0.31064,-4.40462 2.26274,-5.03015c2.01466,-0.43031 4.07676,0.63095 4.76483,2.77826" fill="#001026" fill-rule="evenodd" stroke="none" stroke-width="1" stroke-linecap="butt" stroke-linejoin="miter"/><path d="M26.87388,106.68672c4.09942,-1.3136 8.51915,-2.29933 9.15222,-0.99541c1.07094,2.67039 -0.10575,9.07456 -3.16656,10.27061c-3.38868,1.51636 -13.15132,-0.7367 -14.15216,-3.86006c-0.94584,-2.27997 4.26229,-4.16409 8.16649,-5.41514z" fill="#001026" fill-rule="evenodd" stroke="#001026" stroke-width="1.2" stroke-linecap="round" stroke-linejoin="round"/><path d="M-60.60762,131.49007c0,0 16.73438,0.66483 24.77119,4.76244" fill="none" fill-rule="evenodd" stroke="#001026" stroke-width="1.2" stroke-linecap="round" stroke-linejoin="round"/><path d="M-33.12443,142.91738c-6.42806,5.7191 -20.00843,7.70293 -20.00843,7.70293" fill="none" fill-rule="evenodd" stroke="#001026" stroke-width="1.2" stroke-linecap="round" stroke-linejoin="round"/><path d="M8.18069,128.47767c-0.26857,-0.83814 0.31085,-1.71694 1.15883,-1.75761c4.17899,0.27824 15.79462,0.25296 27.7758,-2.66207c10.74278,-2.74923 16.78808,-5.3795 19.51481,-6.94638c0.90891,-0.5223 2.02546,0.27516 1.97075,1.44792c0.05594,6.22036 -2.32642,24.31232 -23.22635,29.62312c-18.43555,3.59693 -24.48952,-9.25021 -27.19384,-19.70499z" fill="#ff0000" fill-rule="evenodd" stroke="#001026" stroke-width="1.2" stroke-linecap="round" stroke-linejoin="round"/><path d="M11.73553,47.96935l-4.48536,34.76156l-35.8829,-10.09207" fill="none" fill-rule="nonzero" stroke="#676767" stroke-width="5" stroke-linecap="round" stroke-linejoin="miter"/><text transform="translate(61.15315,62.52553) scale(0.9486,1.0531)" font-size="40" xml:space="preserve" fill="#000000" fill-rule="nonzero" stroke="none" stroke-width="1" stroke-linecap="butt" stroke-linejoin="miter" stroke-miterlimit="10" stroke-dasharray="" stroke-dashoffset="0" font-family="Sans Serif" font-weight="normal" text-anchor="start" style="mix-blend-mode: normal"><tspan x="0" dy="0">my 1st platformer</tspan></text></g></g></svg>