<svg version="1.1" xmlns="http://www.w3.org/2000/svg" xmlns:xlink="http://www.w3.org/1999/xlink" width="1032.94338" height="506.90543" viewBox="0,0,1032.94338,506.90543"><g transform="translate(364.24775,72.40992)"><g data-paper-data="{&quot;isPaintingLayer&quot;:true}" fill-rule="nonzero" stroke="#000000" stroke-linecap="butt" stroke-linejoin="miter" stroke-miterlimit="10" stroke-dasharray="" stroke-dashoffset="0" style="mix-blend-mode: normal"><path d="M-363.24775,433.4955v-190h543.67267v190z" fill="#c07b46" stroke-width="2"/><path d="M-340.77678,262.4955v-31h523.00787v31z" fill="#84542f" stroke-width="6"/><path d="M167.17718,261.28604v-33.03303h460.96096v33.03303z" fill="#84542f" stroke-width="5.5"/><path d="M52.04467,247.87776l-12.73791,-32.09953l82.34227,-32.6755l12.73791,32.09953z" fill="#84542f" stroke-width="5.5"/><path d="M166.08897,199.50863l-12.47124,-27.31796l64.1972,-29.30742l12.47124,27.31796z" fill="#84542f" stroke-width="5.5"/><path d="M265.22768,161.51184l-13.28706,-25.24541l66.4353,-34.96595l13.28706,25.24541z" fill="#84542f" stroke-width="5.5"/><path d="M345.30276,116.96229l-13.28706,-25.24541l66.43531,-34.96595l13.28706,25.24541z" fill="#84542f" stroke-width="5.5"/><path d="M423.87633,75.41574l-13.28706,-25.24542l66.4353,-34.96595l13.28706,25.24541z" fill="#84542f" stroke-width="5.5"/><path d="M598.546,-8.48423l-13.28706,-25.24542l66.4353,-34.96595l13.28706,25.24541z" fill="#84542f" stroke-width="5.5"/></g></g></svg>