<svg version="1.1" xmlns="http://www.w3.org/2000/svg" xmlns:xlink="http://www.w3.org/1999/xlink" width="1285.2973" height="520.91443" viewBox="0,0,1285.2973,520.91443"><defs><linearGradient x1="279.78979" y1="151.67643" x2="279.78979" y2="369.39414" gradientUnits="userSpaceOnUse" id="color-1"><stop offset="0" stop-color="#006bff" stop-opacity="0"/><stop offset="1" stop-color="#006bff"/></linearGradient></defs><g transform="translate(364.24775,72.40993)"><g data-paper-data="{&quot;isPaintingLayer&quot;:true}" fill-rule="nonzero" stroke-linecap="butt" stroke-linejoin="miter" stroke-miterlimit="10" stroke-dasharray="" stroke-dashoffset="0" style="mix-blend-mode: normal"><path d="M-363.24775,433.4955v-190h537.66666v190z" fill="#c07b46" stroke="#000000" stroke-width="2"/><path d="M-340.77678,262.4955v-31h513.99886v31z" fill="#84542f" stroke="#000000" stroke-width="6"/><path d="M384.8949,261.28604v-33.03303h243.24324v33.03303z" fill="#84542f" stroke="#000000" stroke-width="5.5"/><path d="M598.546,-8.48423l-13.28706,-25.24542l66.4353,-34.96595l13.28706,25.24541z" fill="#84542f" stroke="#000000" stroke-width="5.5"/><path d="M382.38288,447.5045v-190h537.66667v190z" fill="#c07b46" stroke="#000000" stroke-width="2"/><path d="M173.18318,369.39414c0,0 -0.99973,-65.74558 1.48757,-91.44763c1.76286,-18.21627 0.01393,-48.19201 0.01393,-48.19201c0,0 59.22116,1.5015 91.59159,1.5015c37.84249,0 114.11411,-7.50751 114.11411,-7.50751l6.00601,145.64564z" fill="url(#color-1)" stroke="none" stroke-width="0"/></g></g></svg>