<svg version="1.1" xmlns="http://www.w3.org/2000/svg" xmlns:xlink="http://www.w3.org/1999/xlink" width="83.97761" height="82.2544" viewBox="0,0,83.97761,82.2544"><g transform="translate(-143.95835,-120.76347)"><g data-paper-data="{&quot;isPaintingLayer&quot;:true}" stroke-linecap="butt" stroke-linejoin="miter" stroke-miterlimit="10" stroke-dasharray="" stroke-dashoffset="0" style="mix-blend-mode: normal"><g><path d="M218.31987,189.75608c-3.23861,-6.32022 0.93777,-8.1679 0.93777,-8.1679c3.98918,-2.24303 8.10754,-2.33955 8.10754,-2.33955l-9.04531,10.50746" fill="#e3a066" fill-rule="nonzero" stroke="none" stroke-width="1"/><path d="M219.02399,181.7169c3.98888,-2.24329 8.3412,-2.46828 8.3412,-2.46828l-9.21527,10.70488" fill="none" fill-rule="evenodd" stroke="#8d6a4a" stroke-width="0.5"/><path d="M215.41796,193.12707c-0.3696,-4.38682 2.47531,-8.58934 2.47531,-8.58934c3.98926,-2.24297 6.57,-1.91811 6.57,-1.91811l-9.04531,10.50746" fill="#e3a066" fill-rule="nonzero" stroke="none" stroke-width="1"/><path d="M217.89327,184.53773c3.98926,-2.24297 6.57,-1.91811 6.57,-1.91811l-9.21527,10.70488" fill="none" fill-rule="evenodd" stroke="#8d6a4a" stroke-width="0.5"/><path d="M154.81083,128.67968c5.12384,-0.12491 6.01487,5.9201 6.01487,5.9201c0,0 1.20252,2.88907 2.97945,2.05619c10.15489,8.70948 30.76948,27.3125 31.12303,27.61685c0.50792,0.43724 22.18799,17.12124 22.67997,17.35276c0.81554,0.3834 1.97486,0.24267 1.97486,0.24267c-1.01061,0.91661 -2.71765,0.87678 -2.71765,0.87678c1.10648,0.51246 2.46872,0.11824 2.46872,0.11824c-0.75948,0.69341 -1.36655,1.51801 -1.66333,1.86752c-0.27059,0.31663 -2.73533,5.23172 -2.25277,8.39628l-8.20958,9.53663c-0.1631,0.18947 -15.51291,0.9398 -25.70024,-7.38988c-10.18733,-8.32968 -17.4457,-19.32358 -20.11435,-25.23233c-3.0995,-6.86088 -9.44821,-19.33529 -10.3706,-20.62414c-0.92193,-1.28845 -5.90216,-5.09933 -6.68979,-8.95272c-0.54746,-2.67747 0.797,-5.83747 2.21076,-7.47977c1.41344,-1.64192 5.42098,-4.23597 8.26666,-4.30518" fill="#3e5766" fill-rule="nonzero" stroke="none" stroke-width="1"/><path d="M164.73514,136.68952c0,0 3.52174,0.26669 7.12964,1.26926c8.15698,2.40369 18.34076,8.20151 27.95861,18.12511c8.87113,9.15279 14.33812,15.28936 16.81467,22.31594c0.33957,0.96328 2.48498,0.21339 2.48498,0.21339c-0.54378,0.63168 -1.18797,1.5365 -1.18797,1.5365c0.84809,0.62056 2.21745,-0.48533 2.21745,-0.48533c-0.67396,2.58132 -2.39729,2.03266 -2.39729,2.03266c0.99674,0.33553 1.74361,0.24153 1.74361,0.24153c-0.40348,0.53277 -2.6334,0.8068 -2.6334,0.8068c0.85722,0.73794 2.46864,0.11817 2.46864,0.11817c-6.41428,7.54983 -18.62685,3.20794 -20.74097,0.39838c-2.11405,-2.80949 -22.81165,-29.75389 -28.10917,-34.90141c-5.29822,-5.14747 -5.74882,-11.671 -5.74882,-11.671" fill="#fbf8ea" fill-rule="nonzero" stroke="none" stroke-width="1"/><path d="M169.01129,146.86926c-6.83553,-6.32453 -5.20626,-10.213 -5.20626,-10.213l2.7837,0.20466c-1.74822,2.65726 2.50573,10.08508 2.42256,10.00834" fill="#f0c579" fill-rule="nonzero" stroke="none" stroke-width="1"/><path d="M161.45421,135.7317c0,0 0.4536,0.98425 1.28823,0.94403c1.03831,-0.05027 16.63807,-1.00636 36.16129,18.48387c15.99395,15.96807 17.02315,21.78698 17.45111,22.71089c0.28452,0.61491 0.69445,1.60973 2.76776,0.74249c0,0 -0.69193,1.04105 -1.18759,1.53682c0,0 1.02323,0.25923 2.21745,-0.48533c0,0 0.25292,1.09704 -1.72284,2.36506" fill="none" fill-rule="evenodd" stroke="#d1c1b5" stroke-width="0.5"/><path d="M217.60827,181.62543c0.79024,0.43287 1.97453,0.24305 1.97453,0.24305c-1.01061,0.91661 -2.71765,0.87678 -2.71765,0.87678c1.10648,0.51246 2.46872,0.11824 2.46872,0.11824c-0.75948,0.69341 -1.36655,1.51801 -1.663,1.86714c-0.27059,0.31663 -2.73565,5.2321 -2.25304,8.39659l-8.20932,9.53632c-0.1631,0.18947 -15.51324,0.94018 -25.70057,-7.3895c-10.18694,-8.33014 -17.44531,-19.32404 -20.11435,-25.23233c-3.0991,-6.86133 -9.44821,-19.33529 -10.3706,-20.62414c-0.92193,-1.28845 -5.90183,-5.09971 -6.68979,-8.95272c-0.54706,-2.67792 0.79732,-5.83785 2.21076,-7.47977c1.41351,-1.642 5.41994,-4.33715 8.26706,-4.30564" fill="none" fill-rule="evenodd" stroke="#2e374a" stroke-width="0.5"/></g><g><path d="M158.49432,136.63375c-0.05325,0.08347 0.92416,-4.79315 -0.35717,-6.32765c-0.97991,-1.17343 -3.30238,-1.02855 -3.32631,-1.62643c-0.01634,-0.3987 1.50753,0.05348 2.82883,-0.49276c1.4144,-0.58418 3.42643,-1.37962 5.81881,-3.48446c2.39271,-2.10521 4.80974,-3.61222 6.49246,-3.68899c1.68335,-0.07688 3.09436,0.35466 3.09436,0.35466c0,0 -2.69661,-0.3837 -7.73836,6.82234c-4.12144,5.31708 -3.6845,6.36681 -3.85263,7.54157c-0.16859,1.17437 -1.43446,-1.49611 -2.95999,0.90171" fill="#e3a066" fill-rule="nonzero" stroke="none" stroke-width="1"/><path d="M159.7955,134.78502c0,0 0.10846,-0.27543 0.33408,-0.73633c0.11594,-0.22941 0.25686,-0.50791 0.41801,-0.8277c0.083,-0.1588 0.17153,-0.32801 0.26444,-0.50599c0.09584,-0.17678 0.22433,-0.34458 0.33922,-0.53201c0.95698,-1.4754 2.29174,-3.40805 3.79484,-5.21359c0.75064,-0.90356 1.54109,-1.77548 2.33377,-2.54455c0.39651,-0.38504 0.79678,-0.7398 1.18419,-1.06737c0.39398,-0.32125 0.77907,-0.61056 1.14722,-0.86103c0.19134,-0.11436 0.35979,-0.24842 0.54294,-0.33948c0.18549,-0.08442 0.36201,-0.1647 0.52718,-0.24023c0.34162,-0.13014 0.63592,-0.24163 0.89097,-0.30048c0.24784,-0.0776 0.45305,-0.09557 0.58895,-0.11779c0.13644,-0.01978 0.20912,-0.0311 0.20912,-0.0311c0,0 -0.06962,0.02386 -0.20023,0.06844c-0.13029,0.0442 -0.32126,0.1028 -0.55097,0.21315c-0.23559,0.09342 -0.50466,0.24642 -0.80876,0.41941c-0.29638,0.19085 -0.62003,0.41431 -0.9883,0.64025c-0.35701,0.2429 -0.73206,0.52437 -1.11697,0.83891c-0.37975,0.32096 -0.77236,0.66913 -1.16254,1.04774c-0.78085,0.75747 -1.56236,1.61994 -2.30621,2.51483c-1.49018,1.78962 -2.81793,3.71181 -3.76849,5.17822c-0.22296,0.37611 -0.46098,0.69966 -0.67611,0.98421c-0.20796,0.2894 -0.38889,0.54203 -0.53812,0.75003c-0.14772,0.20931 -0.26367,0.37405 -0.34275,0.48675c-0.07782,0.11048 -0.11549,0.1757 -0.11549,0.1757" fill="#8d6a4a" fill-rule="nonzero" stroke="none" stroke-width="1"/><path d="M158.49432,136.63375c-0.05325,0.08347 0.92416,-4.79315 -0.35717,-6.32765c-0.97991,-1.17343 -3.30238,-1.02855 -3.32631,-1.62643c-0.01634,-0.3987 1.50753,0.05348 2.82883,-0.49276c1.4144,-0.58418 3.42643,-1.37962 5.81881,-3.48446c2.39271,-2.10521 4.80974,-3.61222 6.49246,-3.68899c1.68335,-0.07688 3.09436,0.35466 3.09436,0.35466c0,0 -2.69661,-0.3837 -7.73836,6.82234c-4.12144,5.31708 -3.6845,6.36681 -3.85263,7.54157c-0.16859,1.17437 -1.43446,-1.49611 -2.95999,0.90171z" fill="none" fill-rule="evenodd" stroke="#8d6a4a" stroke-width="0.5"/></g><g><path d="M151.90916,135.50069c-0.449,-0.48944 -0.27953,-1.60169 0.72613,-2.67364c1.39306,-1.37775 2.34153,-0.96239 2.63458,-0.70088c0.3549,0.31673 0.79089,0.86359 -0.66692,2.55704c-1.24512,1.44639 -2.29027,1.25722 -2.69379,0.81749" fill="#e2e3e4" fill-rule="nonzero" stroke="none" stroke-width="1"/><path d="M154.84124,134.37558c0,0 -0.85638,0.27272 -1.43357,-0.42986c-0.57486,-0.70084 -0.12604,-1.52432 0.12346,-1.76555c0.24899,-0.24141 0.6545,-0.25862 0.6545,-0.25862c0,0 0.90567,-0.19678 1.24777,0.34512c0.34217,0.54196 -0.05571,1.42261 -0.05571,1.42261c0,0 -0.40827,0.63367 -0.53644,0.6863" fill="#2e374a" fill-rule="nonzero" stroke="none" stroke-width="1"/><path d="M151.94152,135.52855c-0.449,-0.48944 -0.27953,-1.60169 0.72613,-2.67364c1.39306,-1.37775 2.34161,-0.96233 2.63458,-0.70088c0.3549,0.31673 0.79089,0.86359 -0.66692,2.55704c-1.24512,1.44639 -2.29027,1.25722 -2.69379,0.81749z" fill="none" fill-rule="evenodd" stroke="#2e374a" stroke-width="0.5"/></g><g><path d="M172.48815,153.22371c5.29538,2.71043 14.21564,10.45684 20.61278,18.82248c6.39721,8.36556 8.11877,22.9331 7.24849,23.17353c-0.87029,0.24044 -1.53243,-0.65944 -3.90036,-2.91756c-2.36761,-2.2585 -6.22238,-3.81733 -8.27147,-4.26193c-2.04916,-0.44452 -4.95281,-3.49356 -4.95281,-3.49356c0,0 -14.31636,-17.25329 -16.01038,-19.72944c-2.18226,-3.18885 -1.41114,-6.13978 -1.41114,-6.13978" fill="#3e5766" fill-rule="nonzero" stroke="none" stroke-width="1"/><path d="M172.48815,153.22371c5.29538,2.71043 14.21564,10.45684 20.61278,18.82248c6.39721,8.36556 8.11877,22.9331 7.24849,23.17353c-0.87029,0.24044 -1.53243,-0.65944 -3.90036,-2.91756c-2.36761,-2.2585 -6.22238,-3.81733 -8.27147,-4.26193c-2.04916,-0.44452 -4.95281,-3.49356 -4.95281,-3.49356c0,0 -14.31636,-17.25329 -16.01038,-19.72944c-2.18226,-3.18885 -1.41114,-6.13978 -1.41114,-6.13978" fill="none" fill-rule="evenodd" stroke="#2e374a" stroke-width="0.5"/></g></g></g></svg>